<svg width="168" height="40" viewBox="0 0 168 40" fill="none" xmlns="http://www.w3.org/2000/svg">
  <rect width="168" height="40" rx="20" fill="#0C0C0E"/>
  <path d="M18 29.5L28.5 10.5H33L22.5 29.5H18Z" fill="#C9A36B"/>
  <path d="M31 29.5L41.5 10.5H46L35.5 29.5H31Z" fill="#EFD2A1"/>
  <path d="M51.5 29.5V10.5H56V25.5H66.5V29.5H51.5Z" fill="#F5F1E8"/>
  <path d="M71 29.5V10.5H86V14.3H75.5V18.2H84.6V21.9H75.5V25.7H86.2V29.5H71Z" fill="#F5F1E8"/>
  <path d="M90.5 29.5V10.5H99.7C102.7 10.5 105.1 11.2 106.9 12.6C108.6 14 109.5 15.9 109.5 18.5C109.5 21.2 108.6 23.2 106.9 24.5C105.1 28.8 102.7 29.5 99.7 29.5H90.5ZM95 25.5H99.5C101.1 25.5 102.3 25.1 103.2 24.4C104.1 23.6 104.5 22.3 104.5 20.6V19C104.5 17.4 104.1 16.2 103.2 15.5C102.3 14.7 101.1 14.3 99.5 14.3H95V25.5Z" fill="#F5F1E8"/>
  <path d="M114 29.5V10.5H118.5V29.5H114Z" fill="#F5F1E8"/>
  <path d="M123.5 29.5V10.5H128L137.5 22.7V10.5H142V29.5H137.8L128 17.1V29.5H123.5Z" fill="#F5F1E8"/>
  <path d="M146.5 29.5V10.5H161.5V14.3H151V18.2H160.1V21.9H151V25.7H161.7V29.5H146.5Z" fill="#F5F1E8"/>
</svg>